<svg xmlns="http://www.w3.org/2000/svg" width="1200" height="1200" viewBox="0 0 1200 1200" role="img" aria-label="La Neige 法式雪冰室 logo">
  <rect width="1200" height="1200" fill="#F7EFE2"/>
  <circle cx="600" cy="430" r="250" fill="#FFF9EF" stroke="#C9A45C" stroke-width="18"/>
  <path d="M420 550V380c0-100 80-180 180-180s180 80 180 180v170" fill="none" stroke="#8B1E3F" stroke-width="32" stroke-linecap="round"/>
  <path d="M470 550V390c0-72 58-130 130-130s130 58 130 130v160" fill="none" stroke="#1F5C4B" stroke-width="16" stroke-linecap="round"/>
  <g stroke="#C9A45C" stroke-width="14" stroke-linecap="round">
    <path d="M600 305v250"/>
    <path d="M492 368l216 124"/>
    <path d="M708 368L492 492"/>
    <path d="M555 335l45 42 45-42"/>
    <path d="M555 525l45-42 45 42"/>
    <path d="M502 420l60 16-16 60"/>
    <path d="M698 420l-60 16 16 60"/>
  </g>
  <path d="M365 620c80 64 390 64 470 0" fill="none" stroke="#2B2420" stroke-width="16" stroke-linecap="round"/>
  <text x="600" y="760" text-anchor="middle" font-family="Georgia, 'Times New Roman', serif" font-size="106" fill="#2B2420" letter-spacing="8">LA NEIGE</text>
  <text x="600" y="850" text-anchor="middle" font-family="'Noto Serif TC', 'Songti TC', serif" font-size="58" fill="#8B1E3F">法式雪冰室</text>
  <line x1="360" y1="905" x2="840" y2="905" stroke="#C9A45C" stroke-width="6"/>
  <text x="600" y="970" text-anchor="middle" font-family="'Noto Sans TC', Arial, sans-serif" font-size="34" fill="#1F5C4B">雪花冰・刨冰・熱飲・湯品</text>
</svg>

