<svg xmlns="http://www.w3.org/2000/svg" width="800" height="520" viewBox="0 0 800 520" role="img" aria-label="芒果雪花冰插畫">
  <rect width="800" height="520" fill="#fff5d6"/>
  <circle cx="610" cy="122" r="90" fill="#f4c84d"/>
  <path d="M184 332c30 80 292 80 322 0H184z" fill="#8b1e3f"/>
  <ellipse cx="345" cy="332" rx="164" ry="42" fill="#c9a45c"/>
  <path d="M234 308c38-96 184-98 222 0 12 30-14 60-48 60H282c-34 0-60-30-48-60z" fill="#fff9ef"/>
  <g fill="#f4c84d" stroke="#d99b22" stroke-width="5">
    <rect x="274" y="250" width="48" height="42" rx="10"/>
    <rect x="334" y="234" width="54" height="44" rx="10"/>
    <rect x="402" y="260" width="48" height="42" rx="10"/>
  </g>
  <path d="M532 252c48-104 162-98 154 20-70 30-124 26-154-20z" fill="#f4c84d" stroke="#d99b22" stroke-width="10"/>
  <path d="M552 218c36 40 74 54 128 54" fill="none" stroke="#fff9ef" stroke-width="8" stroke-linecap="round"/>
  <path d="M580 170c32-36 72-42 118-18" fill="none" stroke="#1f5c4b" stroke-width="14" stroke-linecap="round"/>
  <text x="86" y="430" font-family="Georgia, 'Noto Serif TC', serif" font-size="52" fill="#8b1e3f">Mango Rive</text>
  <text x="88" y="470" font-family="'Noto Sans TC', Arial, sans-serif" font-size="24" fill="#6a5650">芒果香草雪花冰</text>
</svg>
