<svg xmlns="http://www.w3.org/2000/svg" width="800" height="520" viewBox="0 0 800 520" role="img" aria-label="聖誕雪花季插畫">
  <rect width="800" height="520" fill="#1f5c4b"/>
  <circle cx="145" cy="105" r="44" fill="#fff9ef"/>
  <circle cx="646" cy="130" r="64" fill="#8b1e3f"/>
  <g stroke="#fff9ef" stroke-width="10" stroke-linecap="round">
    <path d="M628 104v74"/>
    <path d="M594 123l68 38"/>
    <path d="M662 123l-68 38"/>
  </g>
  <path d="M224 334c30 78 286 78 316 0H224z" fill="#8b1e3f"/>
  <ellipse cx="382" cy="334" rx="160" ry="42" fill="#c9a45c"/>
  <path d="M272 310c38-96 180-96 218 0 12 30-12 60-46 60H318c-34 0-58-30-46-60z" fill="#fff9ef"/>
  <g fill="#d8627f">
    <circle cx="326" cy="260" r="24"/>
    <circle cx="378" cy="240" r="28"/>
    <circle cx="430" cy="262" r="24"/>
  </g>
  <path d="M316 222l62-76 62 76z" fill="#c9a45c"/>
  <path d="M334 194h88" stroke="#fff9ef" stroke-width="8" stroke-linecap="round"/>
  <path d="M354 168h50" stroke="#fff9ef" stroke-width="8" stroke-linecap="round"/>
  <text x="84" y="430" font-family="Georgia, 'Noto Serif TC', serif" font-size="52" fill="#fff9ef">Noel Snow</text>
  <text x="86" y="470" font-family="'Noto Sans TC', Arial, sans-serif" font-size="24" fill="#f2d99a">聖誕草莓雪花冰</text>
</svg>
