<svg xmlns="http://www.w3.org/2000/svg" width="800" height="520" viewBox="0 0 800 520" role="img" aria-label="玫瑰情人節雪花冰插畫">
  <rect width="800" height="520" fill="#fff0f3"/>
  <circle cx="620" cy="115" r="84" fill="#f8c5d1"/>
  <circle cx="174" cy="126" r="58" fill="#f7efe2"/>
  <path d="M205 330c32 84 310 84 342 0H205z" fill="#8b1e3f"/>
  <ellipse cx="376" cy="330" rx="171" ry="42" fill="#c9a45c"/>
  <path d="M260 300c38-92 198-96 238 0 12 28-10 60-42 60H302c-32 0-54-32-42-60z" fill="#fff9ef"/>
  <path d="M300 312c12-54 132-64 154 0" fill="none" stroke="#f3a6b8" stroke-width="22" stroke-linecap="round"/>
  <g fill="#d8627f">
    <circle cx="336" cy="266" r="24"/>
    <circle cx="386" cy="253" r="27"/>
    <circle cx="434" cy="276" r="22"/>
  </g>
  <path d="M510 205c-48-50-10-120 54-86 38-58 112-10 82 52-20 42-70 52-136 34z" fill="#8b1e3f"/>
  <path d="M584 150c-34 18-54 46-66 76" fill="none" stroke="#1f5c4b" stroke-width="10" stroke-linecap="round"/>
  <text x="92" y="430" font-family="Georgia, 'Noto Serif TC', serif" font-size="52" fill="#8b1e3f">Rose Snow</text>
  <text x="94" y="470" font-family="'Noto Sans TC', Arial, sans-serif" font-size="24" fill="#6a5650">草莓玫瑰雙人冰</text>
</svg>
