<svg xmlns="http://www.w3.org/2000/svg" width="640" height="420" viewBox="0 0 640 420" role="img" aria-label="餐旅顧問系列抽象插圖">
  <rect width="640" height="420" fill="#fff9ef"/>
  <circle cx="508" cy="104" r="64" fill="#f4c84d"/>
  <path d="M92 286c74-82 154-114 240-96 78 16 132 66 212 28" fill="none" stroke="#c9a45c" stroke-width="16" stroke-linecap="round"/>
  <path d="M98 330c84-48 156-62 216-42 72 24 130 18 224-62" fill="none" stroke="#1f5c4b" stroke-width="10" stroke-linecap="round"/>
  <g>
    <rect x="134" y="86" width="228" height="154" rx="28" fill="#fff9ef" stroke="#2b2420" stroke-width="7"/>
    <path d="M182 140h88M182 188h126" stroke="#8b1e3f" stroke-width="12" stroke-linecap="round"/>
    <circle cx="314" cy="138" r="32" fill="#1f5c4b"/>
    <path d="m296 138 14 14 30-38" fill="none" stroke="#fff9ef" stroke-width="9" stroke-linecap="round" stroke-linejoin="round"/>
  </g>
  <g>
    <path d="M386 304V178l78-42 78 42v126z" fill="#fff9ef" stroke="#2b2420" stroke-width="7" stroke-linejoin="round"/>
    <path d="M424 210h28M486 210h28M424 250h28M486 250h28" stroke="#1f5c4b" stroke-width="12" stroke-linecap="round"/>
    <path d="M452 304v-42h34v42" fill="#c9a45c" stroke="#2b2420" stroke-width="6"/>
  </g>
  <g>
    <circle cx="232" cy="304" r="44" fill="#fff9ef" stroke="#2b2420" stroke-width="7"/>
    <path d="M208 304h48M224 330h16" stroke="#8b1e3f" stroke-width="10" stroke-linecap="round"/>
    <path d="M270 276 326 254l20 50-58 18z" fill="#c9a45c" stroke="#2b2420" stroke-width="6"/>
    <path d="M338 292c32 20 54 48 64 82" fill="none" stroke="#1f5c4b" stroke-width="9" stroke-linecap="round"/>
  </g>
</svg>
