<svg xmlns="http://www.w3.org/2000/svg" width="1200" height="760" viewBox="0 0 1200 760" role="img" aria-label="知識場域整合抽象主視覺">
  <rect width="1200" height="760" fill="#f7efe2"/>
  <circle cx="980" cy="150" r="96" fill="#f4c84d" opacity=".86"/>
  <circle cx="214" cy="610" r="82" fill="#d8e8ef"/>
  <circle cx="1008" cy="612" r="58" fill="#fff5d6"/>

  <path d="M132 548c126-154 258-224 396-210 132 14 202 124 338 118 84-4 156-52 226-144" fill="none" stroke="#8b1e3f" stroke-width="12" stroke-linecap="round"/>
  <path d="M142 594c150-88 286-118 408-90 116 26 204 18 314-44 78-44 142-54 196-30" fill="none" stroke="#c9a45c" stroke-width="18" stroke-linecap="round"/>
  <path d="M178 498c92-84 174-116 246-96 56 16 94 58 150 74 62 18 136-4 222-66 82-58 164-88 246-88" fill="none" stroke="#1f5c4b" stroke-width="10" stroke-linecap="round"/>

  <g opacity=".98">
    <circle cx="600" cy="374" r="132" fill="#fff9ef" stroke="#2b2420" stroke-width="7"/>
    <circle cx="600" cy="374" r="70" fill="#1f5c4b"/>
    <circle cx="600" cy="374" r="18" fill="#fff9ef"/>
    <path d="M600 242v-82M600 506v84M468 374h-88M732 374h88M506 280l-64-64M694 280l64-64M506 468l-64 64M694 468l64 64" stroke="#2b2420" stroke-width="8" stroke-linecap="round"/>
  </g>

  <g>
    <rect x="190" y="136" width="210" height="146" rx="30" fill="#fff9ef" stroke="#2b2420" stroke-width="7"/>
    <path d="M232 188c46-20 84-18 118 8M232 232c44-10 84-8 118 6" fill="none" stroke="#1f5c4b" stroke-width="13" stroke-linecap="round"/>
    <circle cx="366" cy="164" r="28" fill="#8b1e3f"/>
  </g>

  <g>
    <path d="M152 578 266 430l94 104 78-78 118 122z" fill="#1f5c4b"/>
    <path d="M266 430 302 470l58 64 78-78" fill="none" stroke="#fff9ef" stroke-width="14" stroke-linecap="round" stroke-linejoin="round"/>
    <circle cx="462" cy="430" r="32" fill="#f4c84d"/>
  </g>

  <g>
    <path d="M814 548V382l106-52 106 52v166z" fill="#fff9ef" stroke="#2b2420" stroke-width="7" stroke-linejoin="round"/>
    <path d="M862 424h36M940 424h36M862 470h36M940 470h36M862 516h114" stroke="#1f5c4b" stroke-width="13" stroke-linecap="round"/>
  </g>

  <g>
    <rect x="792" y="118" width="246" height="150" rx="28" fill="#fff9ef" stroke="#2b2420" stroke-width="7"/>
    <path d="M838 168h98M838 214h138" stroke="#8b1e3f" stroke-width="13" stroke-linecap="round"/>
    <circle cx="984" cy="164" r="34" fill="#1f5c4b"/>
    <path d="m966 164 14 14 30-38" fill="none" stroke="#fff9ef" stroke-width="9" stroke-linecap="round" stroke-linejoin="round"/>
  </g>

  <g>
    <circle cx="344" cy="336" r="46" fill="#c9a45c" stroke="#2b2420" stroke-width="7"/>
    <path d="M320 336h48M344 312v48" stroke="#fff9ef" stroke-width="10" stroke-linecap="round"/>
    <path d="M300 388c-36 18-62 48-78 90" fill="none" stroke="#8b1e3f" stroke-width="11" stroke-linecap="round"/>
  </g>

  <g>
    <circle cx="744" cy="616" r="42" fill="#fff9ef" stroke="#2b2420" stroke-width="7"/>
    <path d="M720 616h48M736 644h16" stroke="#8b1e3f" stroke-width="11" stroke-linecap="round"/>
    <path d="M786 588 846 566l22 54-62 18z" fill="#c9a45c" stroke="#2b2420" stroke-width="6"/>
    <path d="M860 604c38 22 62 54 72 96" fill="none" stroke="#1f5c4b" stroke-width="10" stroke-linecap="round"/>
  </g>
</svg>
